<?xml version="1.0" encoding="UTF-8" standalone="no"?>
<svg xmlns="http://www.w3.org/2000/svg"
     xmlns:xlink="http://www.w3.org/1999/xlink"
     width="1152px" height="864px" viewBox="0 0 1152 864">
<title>gl2ps_renderer figure</title>
<desc>
Creator: GL2PS 1.3.9, (C) 1999-2015 C. Geuzaine
For: Octave
CreationDate: Sat Nov 26 19:27:19 2016
</desc>
<defs>
</defs>
<polygon fill="#ffffff" points="0,0 1152,0 1152,864 0,864"/>
<g shape-rendering="crispEdges">
<polygon fill="#ffffff" points="0,864 1152,864 1152,0 0,0"/>
<clipPath id="cp001152864">
  <polygon points="0,864 1152,864 1152,0 0,0"/>
</clipPath>
<g clip-path="url(#cp001152864)">
<polygon fill="#ffffff" points="149.76,70 149.76,755.987 1042.56,755.987"/>
<polygon fill="#ffffff" points="149.76,70 1042.56,755.987 1042.56,70"/>
<polyline fill="none" stroke="#262626" stroke-width="0.5" stroke-opacity="0.15" stroke-dasharray="16,0" points="298.56,755.987 298.56,70"/>
<polyline fill="none" stroke="#262626" stroke-width="0.5" stroke-opacity="0.15" stroke-dasharray="16,0" points="447.36,755.987 447.36,70"/>
<polyline fill="none" stroke="#262626" stroke-width="0.5" stroke-opacity="0.15" stroke-dasharray="16,0" points="596.16,755.987 596.16,70"/>
<polyline fill="none" stroke="#262626" stroke-width="0.5" stroke-opacity="0.15" stroke-dasharray="16,0" points="744.96,755.987 744.96,70"/>
<polyline fill="none" stroke="#262626" stroke-width="0.5" stroke-opacity="0.15" stroke-dasharray="16,0" points="893.76,755.987 893.76,70"/>
<polyline fill="none" stroke="#262626" stroke-width="0.5" stroke-opacity="0.15" stroke-dasharray="16,0" points="1042.56,755.987 1042.56,70"/>
<polyline fill="none" stroke="#262626" stroke-width="0.5" points="149.76,755.987 149.76,747.059"/>
<polyline fill="none" stroke="#262626" stroke-width="0.5" points="149.76,70 149.76,78.9279"/>
<polyline fill="none" stroke="#262626" stroke-width="0.5" points="298.56,755.987 298.56,747.059"/>
<polyline fill="none" stroke="#262626" stroke-width="0.5" points="298.56,70 298.56,78.9279"/>
<polyline fill="none" stroke="#262626" stroke-width="0.5" points="447.36,755.987 447.36,747.059"/>
<polyline fill="none" stroke="#262626" stroke-width="0.5" points="447.36,70 447.36,78.9279"/>
<polyline fill="none" stroke="#262626" stroke-width="0.5" points="596.16,755.987 596.16,747.059"/>
<polyline fill="none" stroke="#262626" stroke-width="0.5" points="596.16,70 596.16,78.9279"/>
<polyline fill="none" stroke="#262626" stroke-width="0.5" points="744.96,755.987 744.96,747.059"/>
<polyline fill="none" stroke="#262626" stroke-width="0.5" points="744.96,70 744.96,78.9279"/>
<polyline fill="none" stroke="#262626" stroke-width="0.5" points="893.76,755.987 893.76,747.059"/>
<polyline fill="none" stroke="#262626" stroke-width="0.5" points="893.76,70 893.76,78.9279"/>
<polyline fill="none" stroke="#262626" stroke-width="0.5" points="1042.56,755.987 1042.56,747.059"/>
<polyline fill="none" stroke="#262626" stroke-width="0.5" points="1042.56,70 1042.56,78.9279"/>
<text fill="#262626" x="149.76" y="765.986" font-size="20" text-anchor="middle" baseline-shift="-20" font-family="Helvetica">0</text>
<text fill="#262626" x="298.56" y="765.986" font-size="20" text-anchor="middle" baseline-shift="-20" font-family="Helvetica">10</text>
<text fill="#262626" x="447.36" y="765.986" font-size="20" text-anchor="middle" baseline-shift="-20" font-family="Helvetica">20</text>
<text fill="#262626" x="596.16" y="765.986" font-size="20" text-anchor="middle" baseline-shift="-20" font-family="Helvetica">30</text>
<text fill="#262626" x="744.96" y="765.986" font-size="20" text-anchor="middle" baseline-shift="-20" font-family="Helvetica">40</text>
<text fill="#262626" x="893.76" y="765.986" font-size="20" text-anchor="middle" baseline-shift="-20" font-family="Helvetica">50</text>
<text fill="#262626" x="1042.56" y="765.986" font-size="20" text-anchor="middle" baseline-shift="-20" font-family="Helvetica">60</text>
<polyline fill="none" stroke="#262626" stroke-width="0.5" stroke-opacity="0.15" stroke-dasharray="16,0" points="149.76,755.987 1042.56,755.987"/>
<polyline fill="none" stroke="#262626" stroke-width="0.5" stroke-opacity="0.15" stroke-dasharray="16,0" points="149.76,618.789 1042.56,618.789"/>
<polyline fill="none" stroke="#262626" stroke-width="0.5" stroke-opacity="0.15" stroke-dasharray="16,0" points="149.76,481.592 1042.56,481.592"/>
<polyline fill="none" stroke="#262626" stroke-width="0.5" stroke-opacity="0.15" stroke-dasharray="16,0" points="149.76,344.395 1042.56,344.395"/>
<polyline fill="none" stroke="#262626" stroke-width="0.5" stroke-opacity="0.15" stroke-dasharray="16,0" points="149.76,207.197 1042.56,207.197"/>
<polyline fill="none" stroke="#262626" stroke-width="0.5" stroke-opacity="0.15" stroke-dasharray="16,0" points="149.76,70 1042.56,70"/>
<polyline fill="none" stroke="#262626" stroke-width="0.5" points="149.76,755.987 158.696,755.987"/>
<polyline fill="none" stroke="#262626" stroke-width="0.5" points="1042.56,755.987 1033.62,755.987"/>
<polyline fill="none" stroke="#262626" stroke-width="0.5" points="149.76,618.789 158.696,618.789"/>
<polyline fill="none" stroke="#262626" stroke-width="0.5" points="1042.56,618.789 1033.62,618.789"/>
<polyline fill="none" stroke="#262626" stroke-width="0.5" points="149.76,481.592 158.696,481.592"/>
<polyline fill="none" stroke="#262626" stroke-width="0.5" points="1042.56,481.592 1033.62,481.592"/>
<polyline fill="none" stroke="#262626" stroke-width="0.5" points="149.76,344.395 158.696,344.395"/>
<polyline fill="none" stroke="#262626" stroke-width="0.5" points="1042.56,344.395 1033.62,344.395"/>
<polyline fill="none" stroke="#262626" stroke-width="0.5" points="149.76,207.197 158.696,207.197"/>
<polyline fill="none" stroke="#262626" stroke-width="0.5" points="1042.56,207.197 1033.62,207.197"/>
<polyline fill="none" stroke="#262626" stroke-width="0.5" points="149.76,70 158.696,70"/>
<polyline fill="none" stroke="#262626" stroke-width="0.5" points="1042.56,70 1033.62,70"/>
<text fill="#262626" x="139.751" y="755.987" font-size="20" text-anchor="end" baseline-shift="-10" font-family="Helvetica">0</text>
<text fill="#262626" x="139.751" y="618.789" font-size="20" text-anchor="end" baseline-shift="-10" font-family="Helvetica">5</text>
<text fill="#262626" x="139.751" y="481.592" font-size="20" text-anchor="end" baseline-shift="-10" font-family="Helvetica">10</text>
<text fill="#262626" x="139.751" y="344.395" font-size="20" text-anchor="end" baseline-shift="-10" font-family="Helvetica">15</text>
<text fill="#262626" x="139.751" y="207.197" font-size="20" text-anchor="end" baseline-shift="-10" font-family="Helvetica">20</text>
<text fill="#262626" x="139.751" y="70" font-size="20" text-anchor="end" baseline-shift="-10" font-family="Helvetica">25</text>
<polyline fill="none" stroke="#262626" stroke-width="0.5" stroke-dasharray="16,0" points="149.76,755.987 1042.56,755.987"/>
<polyline fill="none" stroke="#262626" stroke-width="0.5" stroke-dasharray="16,0" points="149.76,70 1042.56,70"/>
<polyline fill="none" stroke="#262626" stroke-width="0.5" stroke-dasharray="16,0" points="149.76,755.987 149.76,70"/>
<polyline fill="none" stroke="#262626" stroke-width="0.5" stroke-dasharray="16,0" points="1042.56,755.987 1042.56,70"/>
<text fill="#262626" x="596.16" y="813.986" font-size="22" text-anchor="middle" baseline-shift="-22" font-family="Helvetica">Time [months]</text>
<text fill="#262626" x="79.751" y="412.993" font-size="22" transform="rotate(-90, 79.751, 412.993)" text-anchor="middle" baseline-shift="0" font-family="Helvetica">Pollutant concentration [L/m^3]</text>
<polyline fill="none" stroke="#0071bc" stroke-width="0.5" points="149.76,755.987 151.549,749.427 153.338,742.947 155.128,736.543 156.917,730.217 158.706,723.965 160.495,717.789 162.284,711.686 164.073,705.657 165.863,699.699 167.652,693.813 169.441,687.997 171.23,682.25 173.019,676.572 174.808,670.962 176.598,665.419 178.387,659.943 180.176,654.531 181.965,649.185 183.754,643.902 185.544,638.683 187.333,633.526 189.122,628.43 190.911,623.395"/>
<polyline fill="none" stroke="#0071bc" stroke-width="0.5" points="194.489,613.506 196.279,608.65 198.068,603.852 199.857,599.111 201.646,594.427 203.435,589.798 205.225,585.226 207.014,580.707 208.803,576.243 210.592,571.832 212.381,567.474 214.17,563.168 215.96,558.914 217.749,554.71 219.538,550.556 221.327,546.453 223.116,542.398 224.905,538.391 226.695,534.433 228.484,530.522 230.273,526.657 232.062,522.839 233.851,519.067 235.641,515.339 237.43,511.656 239.219,508.017 241.008,504.422 242.797,500.869 244.586,497.359 246.376,493.891 248.165,490.465 249.954,487.079 251.743,483.734 253.532,480.429 255.322,477.163 257.111,473.937 258.9,470.749 260.689,467.599 262.478,464.486 264.267,461.411 266.057,458.373 267.846,455.371 269.635,452.404 271.424,449.474 273.213,446.578 275.003,443.717 276.792,440.89 278.581,438.097 280.37,435.337 282.159,432.61 283.948,429.916 285.738,427.254 287.527,424.624 289.316,422.026 291.105,419.458 292.894,416.921 294.683,414.414 296.473,411.938 298.262,409.491 300.051,407.073 301.84,404.684 303.629,402.323 305.419,399.991 307.208,397.687 308.997,395.41 310.786,393.161 312.575,390.938 314.364,388.742 316.154,386.572 317.943,384.428 319.732,382.31 321.521,380.217 323.31,378.149 325.099,376.106 326.889,374.087 328.678,372.092 330.467,370.122 332.256,368.174 334.045,366.25 335.835,364.349 337.624,362.471 339.413,360.615 341.202,358.782 342.991,356.97 344.78,355.18 346.57,353.411 348.359,351.663 350.148,349.937 351.937,348.231 353.726,346.545 355.516,344.88 357.305,343.234 359.094,341.608 360.883,340.002 362.672,338.414 364.461,336.846 366.251,335.297 368.04,333.765 369.829,332.253 371.618,330.758 373.407,329.281 375.196,327.822 376.986,326.38 378.775,324.956 380.564,323.548 382.353,322.158 384.142,320.784 385.932,319.426 387.721,318.085 389.51,316.76 391.299,315.45 393.088,314.156 394.877,312.878 396.667,311.615 398.456,310.367 400.245,309.134 402.034,307.915 403.823,306.711 405.613,305.522 407.402,304.347 409.191,303.186 410.98,302.039 412.769,300.905 414.558,299.785 416.348,298.678 418.137,297.585 419.926,296.505 421.715,295.437 423.504,294.383 425.293,293.341 427.083,292.311 428.872,291.294 430.661,290.289 432.45,289.295 434.239,288.314 436.029,287.345 437.818,286.387 439.607,285.44 441.396,284.505 443.185,283.581 444.974,282.668 446.764,281.766 448.553,280.875 450.342,279.994 452.131,279.124 453.92,278.265 455.71,277.415 457.499,276.576 459.288,275.747 461.077,274.927 462.866,274.118 464.655,273.318 466.445,272.528 468.234,271.747 470.023,270.975 471.812,270.213 473.601,269.46 475.39,268.716 477.18,267.981 478.969,267.254 480.758,266.536 482.547,265.827 484.336,265.126 486.126,264.434 487.915,263.75 489.704,263.074 491.493,262.406 493.282,261.746 495.071,261.094 496.861,260.45 498.65,259.814 500.439,259.185 502.228,258.563 504.017,257.949 505.807,257.343 507.596,256.744 509.385,256.151 511.174,255.566 512.963,254.988 514.752,254.417 516.542,253.853 518.331,253.295 520.12,252.744 521.909,252.2 523.698,251.662 525.487,251.13 527.277,250.605 529.066,250.086 530.855,249.574 532.644,249.067 534.433,248.567 536.223,248.072 538.012,247.584 539.801,247.101 541.59,246.624 543.379,246.153 545.168,245.687 546.958,245.227 548.747,244.773 550.536,244.324 552.325,243.88 554.114,243.442 555.904,243.008 557.693,242.58 559.482,242.157 561.271,241.74 563.06,241.327 564.849,240.919 566.639,240.516 568.428,240.118 570.217,239.724 572.006,239.335 573.795,238.951 575.584,238.572 577.374,238.197 579.163,237.826 580.952,237.46 582.741,237.098 584.53,236.741 586.32,236.388 588.109,236.039 589.898,235.694 591.687,235.354 593.476,235.017 595.265,234.685 597.055,234.356 598.844,234.032 600.633,233.711 602.422,233.394 604.211,233.081 606,232.771 607.79,232.466 609.579,232.164 611.368,231.865 613.157,231.571 614.946,231.279 616.736,230.991 618.525,230.707 620.314,230.426 622.103,230.148 623.892,229.874 625.681,229.603 627.471,229.335 629.26,229.071 631.049,228.809 632.838,228.551 634.627,228.296 636.417,228.044 638.206,227.794 639.995,227.548 641.784,227.305 643.573,227.065 645.362,226.827 647.152,226.593 648.941,226.361 650.73,226.132 652.519,225.905 654.308,225.682 656.098,225.461 657.887,225.243 659.676,225.027 661.465,224.814 663.254,224.603 665.043,224.395 666.833,224.19 668.622,223.987 670.411,223.786 672.2,223.588 673.989,223.392 675.778,223.198 677.568,223.007 679.357,222.818 681.146,222.631 682.935,222.447 684.724,222.265 686.514,222.085 688.303,221.907 690.092,221.731 691.881,221.557 693.67,221.385 695.459,221.216 697.249,221.048 699.038,220.883 700.827,220.719 702.616,220.558 704.405,220.398 706.195,220.24 707.984,220.084 709.773,219.93 711.562,219.778 713.351,219.628 715.14,219.479 716.93,219.332 718.719,219.187 720.508,219.044 722.297,218.902 724.086,218.763 725.875,218.624 727.665,218.488 729.454,218.353 731.243,218.219 733.032,218.088 734.821,217.957 736.61,217.829 738.4,217.702 740.189,217.576 741.978,217.452 743.767,217.33 745.556,217.209 747.346,217.089 749.135,216.971 750.924,216.854 752.713,216.738 754.502,216.624 756.292,216.512 758.081,216.4 759.87,216.29 761.659,216.182 763.448,216.074 765.237,215.968 767.027,215.863 768.816,215.76 770.605,215.658 772.394,215.556 774.183,215.457 775.972,215.358 777.762,215.26 779.551,215.164 781.34,215.069 783.129,214.975 784.918,214.882 786.708,214.79 788.497,214.699 790.286,214.609 792.075,214.521 793.864,214.433 795.653,214.347 797.443,214.261 799.232,214.177 801.021,214.094 802.81,214.011 804.599,213.93 806.389,213.849 808.178,213.77 809.967,213.691 811.756,213.613 813.545,213.537 815.334,213.461 817.124,213.386 818.913,213.312 820.702,213.239 822.491,213.167 824.28,213.096 826.069,213.025 827.859,212.955 829.648,212.887 831.437,212.819 833.226,212.751 835.015,212.685 836.805,212.619 838.594,212.555 840.383,212.491 842.172,212.427 843.961,212.365 845.75,212.303 847.54,212.242 849.329,212.182 851.118,212.122 852.907,212.063 854.696,212.005 856.485,211.948 858.275,211.891 860.064,211.835 861.853,211.779 863.642,211.725 865.431,211.671 867.221,211.617 869.01,211.564 870.799,211.512 872.588,211.461 874.377,211.41 876.167,211.359 877.956,211.309 879.745,211.26 881.534,211.212 883.323,211.164 885.112,211.116 886.901,211.069 888.691,211.023 890.48,210.977 892.269,210.932 894.058,210.888 895.847,210.844 897.637,210.8 899.426,210.757 901.215,210.714 903.004,210.672 904.793,210.631 906.583,210.59 908.372,210.549 910.161,210.509 911.95,210.47 913.739,210.43 915.528,210.392 917.318,210.354 919.107,210.316 920.896,210.279 922.685,210.242 924.474,210.205 926.263,210.169 928.053,210.134 929.842,210.099 931.631,210.064 933.42,210.03 935.209,209.996 936.999,209.963 938.788,209.93 940.577,209.897 942.366,209.865 944.155,209.833 945.944,209.801 947.734,209.77 949.523,209.739 951.312,209.709 953.101,209.679 954.89,209.649 956.68,209.62 958.469,209.591 960.258,209.562 962.047,209.534 963.836,209.506 965.625,209.479 967.415,209.451 969.204,209.424 970.993,209.398 972.782,209.372 974.571,209.346 976.36,209.32 978.15,209.294 979.939,209.269 981.728,209.245 983.517,209.22 985.306,209.196 987.095,209.172 988.885,209.149 990.674,209.125 992.463,209.102 994.252,209.079 996.041,209.057 997.831,209.035 999.62,209.013 1001.41,208.991 1003.2,208.97 1004.99,208.948 1006.78,208.927 1008.57,208.907 1010.35,208.886 1012.14,208.866 1013.93,208.846 1015.72,208.827 1017.51,208.807 1019.3,208.788 1021.09,208.769 1022.88,208.75 1024.67,208.731 1026.46,208.713 1028.25,208.695 1030.04,208.677 1031.82,208.659 1033.61,208.642 1035.4,208.625 1037.19,208.608 1038.98,208.591 1040.77,208.574 1042.56,208.558"/>
<text fill="#000000" x="207.447" y="618.789" font-size="20" text-anchor="start" baseline-shift="-10" font-family="Helvetica">2.877 months</text>
<polygon fill="#d85218" points="202.567,618.789 201.576,623.128 198.802,626.608"/>
<polygon fill="#d85218" points="202.567,618.789 198.802,626.608 194.792,628.539"/>
<polygon fill="#d85218" points="202.567,618.789 194.792,628.539 190.342,628.539"/>
<polygon fill="#d85218" points="202.567,618.789 190.342,628.539 186.332,626.608"/>
<polygon fill="#d85218" points="202.567,618.789 186.332,626.608 183.557,623.128"/>
<polygon fill="#d85218" points="202.567,618.789 183.557,623.128 182.567,618.789"/>
<polygon fill="#d85218" points="202.567,618.789 182.567,618.789 183.557,614.45"/>
<polygon fill="#d85218" points="202.567,618.789 183.557,614.45 186.332,610.971"/>
<polygon fill="#d85218" points="202.567,618.789 186.332,610.971 190.342,609.04"/>
<polygon fill="#d85218" points="202.567,618.789 190.342,609.04 194.792,609.04"/>
<polygon fill="#d85218" points="202.567,618.789 194.792,609.04 198.802,610.971"/>
<polygon fill="#d85218" points="202.567,618.789 198.802,610.971 201.576,614.45"/>
<polyline fill="none" stroke="#262626" stroke-width="0.5" stroke-opacity="0.15" stroke-dasharray="16,0" points="149.76,755.987 149.76,70"/>
<text fill="#000000" x="596.16" y="50" font-size="22" text-anchor="middle" baseline-shift="0" font-family="Helvetica" font-weight="bold">Pollutant concentration [L/m^3] vs. time [months]</text>
</g>
</g>
</svg>
